<svg id="7ba02c41-bf82-466f-bc05-02cc4c31b25f" data-name="Слой 1" xmlns="http://www.w3.org/2000/svg" xmlns:xlink="http://www.w3.org/1999/xlink" viewBox="0 0 1920 400">
  <defs>
    <style>
      .beb4c20c-f48b-4394-a6d3-64ce74eae9b5 {
        fill: url(#057c7d0a-f8bc-42b2-8058-bd8c451576e2);
      }

      .\34 b289109-e6fe-4124-8152-9965653e7737 {
        fill: #fff;
      }
    </style>
    <linearGradient id="057c7d0a-f8bc-42b2-8058-bd8c451576e2" data-name="Безымянный градиент 1075" x1="19.63908" y1="559.68046" x2="1047.56216" y2="559.68046" gradientTransform="translate(752.35776 -359.68046) scale(0.38913 1)" gradientUnits="userSpaceOnUse">
      <stop offset="0" stop-color="#fff" stop-opacity="0"/>
      <stop offset="0.07441" stop-color="#d5e6f0" stop-opacity="0.10424"/>
      <stop offset="0.19037" stop-color="#9ac4dc" stop-opacity="0.25"/>
      <stop offset="0.24406" stop-color="#73adcf" stop-opacity="0.31186"/>
      <stop offset="0.34609" stop-color="#3c8dbc" stop-opacity="0.4"/>
      <stop offset="0.4546" stop-color="#3c8dbc" stop-opacity="0.61136"/>
      <stop offset="0.563" stop-color="#3c8dbc" stop-opacity="0.78084"/>
      <stop offset="0.66733" stop-color="#3c8dbc" stop-opacity="0.902"/>
      <stop offset="0.76585" stop-color="#3c8dbc" stop-opacity="0.97504"/>
      <stop offset="0.8525" stop-color="#3c8dbc"/>
      <stop offset="0.97915" stop-color="#3c8dbc"/>
      <stop offset="1" stop-color="#3c8dbc"/>
    </linearGradient>
  </defs>
  <title>home</title>
  <rect class="beb4c20c-f48b-4394-a6d3-64ce74eae9b5" x="760" y="-760" width="400" height="1920" transform="translate(760 1160) rotate(-90)"/>
  <g>
    <path class="4b289109-e6fe-4124-8152-9965653e7737" d="M795.24316,196.35986c3.68018,3.19971,8.48047,5.43994,12.80029,5.43994,4.88037,0,7.28027-1.91992,7.28027-5.04,0-3.28027-2.96-4.32031-7.52-6.24023l-6.72021-2.87988c-5.43994-2.16016-10.56006-6.64014-10.56006-14.24072,0-8.64014,7.75977-15.52,18.56006-15.52a24.14983,24.14983,0,0,1,16.80078,6.87988l-5.92041,7.44043c-3.43994-2.64014-6.72021-4.16016-10.88037-4.16016-4,0-6.64014,1.75977-6.64014,4.72021,0,3.19971,3.44043,4.31982,8.00049,6.16016l6.64014,2.71973c6.31982,2.56006,10.32031,6.80029,10.32031,14.16064,0,8.63965-7.2002,16.16016-19.60059,16.16016a28.90617,28.90617,0,0,1-19.36035-7.52051Z" transform="translate(0 0)"/>
    <path class="4b289109-e6fe-4124-8152-9965653e7737" d="M834.28223,159.31885c0-3.6001,2.87988-6.08008,6.7998-6.08008,4.00049,0,6.80029,2.48,6.80029,6.08008s-2.7998,6.16016-6.80029,6.16016C837.16211,165.479,834.28223,162.91895,834.28223,159.31885Zm.96,12.00049h11.76025V211H835.24219Z" transform="translate(0 0)"/>
    <path class="4b289109-e6fe-4124-8152-9965653e7737" d="M857.32129,171.31934h9.6001l.80029,5.12012h.31982c3.27979-3.28027,6.80029-6.08057,12-6.08057,5.60059,0,8.96045,2.40039,10.96045,6.64014,3.52-3.6001,7.2002-6.64014,12.48047-6.64014,8.56006,0,12.3999,6.08057,12.3999,16.00049V211H904.12207V187.87939c0-5.76025-1.52-7.52-4.87988-7.52-2,0-4.24023,1.27979-6.80029,3.83984V211H880.68164V187.87939c0-5.76025-1.52-7.52-4.87988-7.52-1.91992,0-4.24023,1.27979-6.72021,3.83984V211H857.32129Z" transform="translate(0 0)"/>
    <path class="4b289109-e6fe-4124-8152-9965653e7737" d="M937.64111,214.12012V225.7207H925.88086V171.31934h9.6001l.80029,3.91992h.31982c3.12012-2.80029,7.12012-4.88037,11.28027-4.88037,9.6001,0,15.52,7.92041,15.52,20.16064,0,13.59961-8.16016,21.44043-16.72021,21.44043a13.75414,13.75414,0,0,1-9.43994-4.16016Zm6.32031-11.76074c4.08008,0,7.35986-3.51953,7.35986-11.67969,0-7.12012-2.16016-10.72021-6.87988-10.72021-2.40039,0-4.48047,1.11963-6.80029,3.6001V199.7998A9.12374,9.12374,0,0,0,943.96143,202.35938Z" transform="translate(0 0)"/>
    <path class="4b289109-e6fe-4124-8152-9965653e7737" d="M971.7207,154.91895h11.75977v44.24072c0,2.48,1.12012,3.27979,2.08008,3.27979a4.93446,4.93446,0,0,0,1.44043-.16016L988.44043,211a15.33362,15.33362,0,0,1-5.91992.96c-8.08008,0-10.7998-5.28027-10.7998-13.28027Z" transform="translate(0 0)"/>
    <path class="4b289109-e6fe-4124-8152-9965653e7737" d="M1011,170.35889c11.28027,0,16.88086,8.24023,16.88086,19.04053a23.27107,23.27107,0,0,1-.48047,4.96h-23.76074c1.04,6.00049,5.04,8.64063,10.32031,8.64063a15.99118,15.99118,0,0,0,8.56055-2.64014l3.91992,7.11963a25.96133,25.96133,0,0,1-14.08008,4.48047c-11.36035,0-20.08106-7.68066-20.08106-20.80029C992.2793,178.2793,1001.47949,170.35889,1011,170.35889Zm6.87988,16.7207c0-4.56006-1.91992-7.76025-6.63965-7.76025-3.67969,0-6.87988,2.48-7.68066,7.76025Z" transform="translate(0 0)"/>
    <path class="4b289109-e6fe-4124-8152-9965653e7737" d="M1037.79883,158.51855H1053.959c11.60059,0,19.36035,3.92041,19.36035,15.44043,0,11.04053-7.91992,16.24072-19.36035,16.24072h-9.44043V211h-6.71973Zm15.28027,26.24072c9.2002,0,13.60059-3.35986,13.60059-10.80029,0-7.6001-4.56055-10.08008-13.60059-10.08008h-8.56055v20.88037Z" transform="translate(0 0)"/>
    <path class="4b289109-e6fe-4124-8152-9965653e7737" d="M1083.47852,158.51855h7.9209l10.16016,28.16113,3.75977,10.72021h.32031l3.67969-10.72021,10.08008-28.16113h7.84082V211h-6.32031V182.11914c0-4.64014.55957-10.87988.87988-15.52h-.32031l-4.16016,11.68018-10.08008,27.44043h-3.83984l-10.08008-27.44043-4.16016-11.68018h-.32031c.32031,4.64014.79981,10.87988.79981,15.52V211h-6.16016Z" transform="translate(0 0)"/>
  </g>
</svg>
